<svg width="100" height="26" viewBox="0 0 100 26" fill="none" xmlns="http://www.w3.org/2000/svg">
<g clip-path="url(#clip0)">
<path fill-rule="evenodd" clip-rule="evenodd" d="M64.1422 25.2114H59.9127C59.1182 25.2114 58.4743 24.5648 58.4743 23.768V12.5495L51.05 17.2217C50.4271 17.6139 49.635 17.6139 49.0122 17.2217L41.5879 12.549V23.768C41.5879 24.5648 40.9434 25.2114 40.1494 25.2114H35.9199C35.1249 25.2114 34.4814 24.5648 34.4814 23.768V2.14544C34.4814 0.597154 36.2105 -0.31748 37.483 0.557701L49.2183 8.62582C49.7079 8.9631 50.3542 8.9631 50.8443 8.62582L62.5786 0.557701C63.8517 -0.317961 65.5807 0.596673 65.5807 2.14496V23.768C65.5807 24.5648 64.9367 25.2114 64.1422 25.2114Z" fill="#FF4A4A"/>
<path fill-rule="evenodd" clip-rule="evenodd" d="M28.1104 25.0189L1.90876 25.0184C0.854649 25.0184 0 24.1603 0 23.1018V1.43746C0 0.643501 0.640867 0 1.43157 0H5.64087C6.4311 0 7.07245 0.643501 7.07245 1.43746V17.9169L22.9467 17.9174V1.43746C22.9467 0.643501 23.5871 0 24.3782 0H28.5875C29.3778 0 30.0191 0.643501 30.0191 1.43746V23.1023C30.0191 24.1608 29.1645 25.0189 28.1104 25.0189Z" fill="#FF4A4A"/>
<path fill-rule="evenodd" clip-rule="evenodd" d="M71.8892 0L98.0908 0.000479152C99.145 0.000479152 99.9996 0.85864 99.9996 1.91709V23.5815C99.9996 24.3754 99.3583 25.0189 98.568 25.0189H94.3587C93.568 25.0189 92.9272 24.3754 92.9272 23.5815V8.0603C92.9272 7.53131 92.4996 7.10199 91.9728 7.10199L78.0073 7.10151C77.4805 7.10151 77.0529 7.53035 77.0529 8.05982V23.5815C77.0529 24.3754 76.4121 25.0189 75.6213 25.0189H71.412C70.6213 25.0189 69.9805 24.3754 69.9805 23.5815V1.91661C69.9805 0.858161 70.8351 0 71.8892 0Z" fill="#FF4A4A"/>
<path fill-rule="evenodd" clip-rule="evenodd" d="M81.4531 13.1676V17.4326C81.4531 18.2213 82.0945 18.8605 82.8859 18.8605H87.0949C87.8863 18.8605 88.5277 18.2213 88.5277 17.4326V13.1676C88.5277 12.379 87.8863 11.7397 87.0949 11.7397H82.8859C82.0945 11.7397 81.4531 12.379 81.4531 13.1676Z" fill="#FF4A4A"/>
</g>
<defs>
<clipPath id="clip0">
<rect width="100" height="25.7143" fill="white"/>
</clipPath>
</defs>
</svg>
