<svg width="20" height="14" viewBox="0 0 20 14" fill="none" xmlns="http://www.w3.org/2000/svg">
<path d="M16.7984 2.0501C16.7984 2.0501 14.8494 0.524348 12.5484 0.350098L12.341 0.765323C14.421 1.2749 15.3755 2.00335 16.3734 2.9001C14.6535 2.02205 12.9564 1.2001 9.99844 1.2001C7.04044 1.2001 5.34341 2.02205 3.62344 2.9001C4.62134 2.00335 5.75694 1.1933 7.65584 0.765323L7.44844 0.350098C5.03444 0.577473 3.19844 2.0501 3.19844 2.0501C3.19844 2.0501 1.02201 5.20615 0.648438 11.4001C2.84144 13.9301 6.17344 13.9501 6.17344 13.9501L6.87044 13.0219C5.68724 12.6105 4.35274 11.8765 3.19844 10.5501C4.57459 11.5913 6.65156 12.6751 9.99844 12.6751C13.3453 12.6751 15.4223 11.5913 16.7984 10.5501C15.6446 11.8765 14.3101 12.6105 13.1264 13.0219L13.8234 13.9501C13.8234 13.9501 17.1554 13.9301 19.3484 11.4001C18.9749 5.20615 16.7984 2.0501 16.7984 2.0501ZM7.23594 9.7001C6.41399 9.7001 5.74844 8.93935 5.74844 8.0001C5.74844 7.06085 6.41399 6.3001 7.23594 6.3001C8.05789 6.3001 8.72344 7.06085 8.72344 8.0001C8.72344 8.93935 8.05789 9.7001 7.23594 9.7001ZM12.7609 9.7001C11.939 9.7001 11.2734 8.93935 11.2734 8.0001C11.2734 7.06085 11.939 6.3001 12.7609 6.3001C13.5829 6.3001 14.2484 7.06085 14.2484 8.0001C14.2484 8.93935 13.5829 9.7001 12.7609 9.7001Z" fill="#FF4A4A"/>
</svg>
