<svg width="16" height="17" viewBox="0 0 16 17" fill="none" xmlns="http://www.w3.org/2000/svg">
<path fill-rule="evenodd" clip-rule="evenodd" d="M14.4489 7.44874L13.5089 8.38874C13.1957 8.70192 12.676 8.70692 12.3601 8.39486C12.0464 8.08512 12.0414 7.55857 12.3539 7.24601L13.1127 6.48728C13.1766 6.42338 13.2416 6.35991 13.3069 6.29627C13.5026 6.10538 13.7 5.91289 13.8723 5.70229C13.9931 5.53181 14.0974 5.351 14.1846 5.16115C14.2599 4.9616 14.316 4.75593 14.3525 4.54582C14.3752 4.32561 14.3763 4.10429 14.3559 3.88389C14.32 3.66703 14.2633 3.45471 14.1861 3.24888C14.0947 3.0504 13.9845 2.86185 13.8565 2.68474C13.7177 2.51847 13.5638 2.36609 13.3961 2.22898C13.2254 2.10796 13.0443 2.00338 12.8541 1.9161C12.6546 1.84076 12.449 1.78469 12.2389 1.74822C12.0187 1.72553 11.7975 1.7244 11.5771 1.74482C11.3602 1.78069 11.1477 1.83743 10.9418 1.9147C10.7442 2.00566 10.5564 2.11534 10.3799 2.24272C10.2055 2.38868 10.0448 2.55223 9.88499 2.71483C9.83729 2.76336 9.78967 2.81181 9.7418 2.85969L8.6187 3.98278L7.47016 5.13133C7.42279 5.17869 7.37488 5.22581 7.32689 5.27301C7.15577 5.44129 6.98366 5.61055 6.83171 5.79558C6.71138 5.96564 6.60732 6.14596 6.52044 6.33528C6.44511 6.53478 6.38904 6.74042 6.35256 6.95048C6.32988 7.17069 6.32875 7.39201 6.34918 7.6124C6.38504 7.82937 6.44179 8.04179 6.51906 8.2477C6.61037 8.44609 6.72054 8.63457 6.84853 8.81161C6.98749 8.97807 7.14162 9.13047 7.30948 9.26779C7.42658 9.35077 7.54841 9.42625 7.67517 9.49422C8.06535 9.70347 8.18856 10.2295 7.97247 10.6038C7.74601 10.996 7.25282 11.1102 6.86293 10.9011C6.41881 10.6629 6.00011 10.333 5.68299 9.93945C5.52576 9.7443 5.37189 9.54586 5.24862 9.32708C5.12655 9.1104 5.02659 8.8793 4.94125 8.64606C4.64869 7.84638 4.63029 6.91284 4.88591 6.10058C5.10242 5.4126 5.4832 4.82058 5.99123 4.31255L6.87791 3.42587L8.94329 1.36049C9.4837 0.820095 10.1533 0.407621 10.9011 0.22734C11.8967 -0.0126685 12.9576 0.114908 13.8595 0.604671C14.7849 1.10721 15.4821 1.96945 15.8049 2.96851C15.9501 3.41773 16.018 3.91109 15.9915 4.38282C15.9606 4.932 15.8305 5.43897 15.6071 5.93938C15.4152 6.36916 15.1301 6.7676 14.7977 7.09991L14.4489 7.44874ZM1.54815 9.05568L2.48812 8.11569C2.80131 7.80249 3.32098 7.79749 3.63703 8.10955C3.9507 8.41928 3.95575 8.94583 3.64319 9.2584L2.88446 10.0171C2.82051 10.0811 2.75538 10.1446 2.69007 10.2083C2.49442 10.3991 2.29712 10.5915 2.12489 10.8021C2.0041 10.9726 1.89969 11.1534 1.81255 11.3432C1.7372 11.5428 1.68113 11.7484 1.64465 11.9585C1.62196 12.1788 1.62083 12.4001 1.64128 12.6206C1.67714 12.8375 1.73389 13.0498 1.81114 13.2557C1.90244 13.4541 2.01261 13.6426 2.14061 13.8196C2.2794 13.9859 2.43334 14.1383 2.60104 14.2754C2.77174 14.3964 2.95279 14.501 3.14291 14.5882C3.34245 14.6636 3.54813 14.7197 3.75822 14.7561C3.97844 14.7788 4.19976 14.78 4.42017 14.7595C4.63702 14.7237 4.84934 14.6669 5.05516 14.5897C5.2529 14.4987 5.44079 14.389 5.61733 14.2616C5.79158 14.1157 5.95221 13.9523 6.11191 13.7898C6.15969 13.7412 6.20738 13.6926 6.25533 13.6447L7.37843 12.5216L8.52697 11.373C8.57436 11.3256 8.62229 11.2785 8.67029 11.2313C8.84139 11.063 9.01348 10.8938 9.1654 10.7088C9.28573 10.5388 9.38978 10.3584 9.47667 10.1691C9.55203 9.96958 9.60811 9.76389 9.64458 9.55377C9.66728 9.33356 9.66841 9.11225 9.64797 8.89186C9.61211 8.67501 9.55539 8.4627 9.47816 8.25688C9.38685 8.05842 9.27664 7.86988 9.14862 7.69278C9.0097 7.52638 8.85562 7.37404 8.68783 7.23676C8.57065 7.15371 8.44874 7.0782 8.32191 7.01019C7.93173 6.80096 7.80852 6.27491 8.02461 5.90065C8.25108 5.50839 8.74426 5.39428 9.13415 5.60335C9.57827 5.8415 9.997 6.17138 10.3141 6.56494C10.4713 6.76007 10.6252 6.95853 10.7485 7.17731C10.8705 7.394 10.9705 7.62509 11.0558 7.85833C11.3484 8.65801 11.3668 9.59155 11.1111 10.4038C10.8946 11.0918 10.5139 11.6838 10.0058 12.1918L9.11917 13.0785L7.05379 15.1439C6.51341 15.6843 5.84373 16.0968 5.09594 16.277C4.10037 16.5171 3.03953 16.3895 2.13763 15.8997C1.21218 15.3972 0.514975 14.535 0.192172 13.5359C0.0470156 13.0867 -0.0208697 12.5933 0.00562739 12.1216C0.0364745 11.5724 0.166559 11.0655 0.38998 10.565C0.581867 10.1352 0.867 9.73681 1.19931 9.4045L1.54815 9.05568Z" fill="#FF4A4A"/>
</svg>
