<svg width="42" height="42" viewBox="0 0 42 42" fill="none" xmlns="http://www.w3.org/2000/svg">
<circle cx="21" cy="21" r="21" fill="#FF4A4A"/>
<path d="M20.9992 20.9263C19.8461 20.9263 18.8984 21.8927 18.8984 23.0647C18.8984 24.2367 19.8461 25.2032 20.9992 25.2032C22.1524 25.2032 23.1 24.2367 23.1 23.0647C23.0985 21.8927 22.1524 20.9263 20.9992 20.9263ZM20.9992 23.6986C20.6494 23.6986 20.3779 23.424 20.3779 23.0647C20.3779 22.7054 20.6494 22.4309 20.9992 22.4309C21.3491 22.4309 21.6205 22.7054 21.6205 23.0647C21.6205 23.424 21.3491 23.6986 20.9992 23.6986Z" fill="white"/>
<path d="M27.8045 17.2955H26.2763V15.3736C26.2763 12.4099 23.9119 10 21 10C18.0881 10 15.7221 12.4099 15.7221 15.3736V17.2955H14.194C13.5099 17.4995 13 18.149 13 18.9053V27.2238C13 28.14 13.7452 28.8994 14.6474 28.8994H27.3526C28.2548 28.8994 29 28.1385 29 27.2238V18.9053C28.9984 18.149 28.4885 17.4995 27.8045 17.2955ZM17.2016 15.3736C17.2016 13.2163 18.8851 11.5046 21 11.5046C23.1149 11.5046 24.7968 13.2163 24.7968 15.3736V17.2955H17.2016V15.3736ZM27.5189 27.2238C27.5189 27.2818 27.5001 27.3226 27.4734 27.3509C27.4468 27.3775 27.406 27.3964 27.351 27.3964H14.6474C14.5925 27.3964 14.5517 27.3775 14.525 27.3509C14.4983 27.3226 14.4795 27.2818 14.4795 27.2238V18.9053C14.4795 18.8472 14.4983 18.8064 14.525 18.7782C14.5517 18.7515 14.5925 18.7327 14.6474 18.7327H27.3526C27.4075 18.7327 27.4483 18.7515 27.475 18.7782C27.5017 18.8064 27.5205 18.8472 27.5205 18.9053V27.2238H27.5189Z" fill="white"/>
</svg>
