<svg width="27" height="27" viewBox="0 0 27 27" fill="none" xmlns="http://www.w3.org/2000/svg">
<path d="M26.9151 12.0053C26.8719 11.6246 26.4289 11.3411 26.0453 11.3411C25.4377 11.3544 24.8405 11.1812 24.3344 10.8447C23.8283 10.5082 23.4376 10.0246 23.215 9.45923C22.9924 8.89383 22.9486 8.27379 23.0896 7.68274C23.2305 7.09169 23.5494 6.55807 24.0032 6.15384C24.1446 6.02581 24.2319 5.84877 24.2475 5.65869C24.263 5.46861 24.2056 5.27974 24.0869 5.13044C23.4559 4.33261 22.7374 3.60802 21.9448 2.97022C21.7949 2.85059 21.6049 2.79265 21.4136 2.8082C21.2224 2.82375 21.0443 2.91164 20.9157 3.05393C20.4927 3.49911 19.9471 3.80884 19.348 3.94391C18.7488 4.07898 18.1231 4.03332 17.5499 3.8127C16.982 3.56978 16.5027 3.15806 16.177 2.63344C15.8513 2.10881 15.695 1.4967 15.7292 0.880205C15.7395 0.688667 15.6766 0.500378 15.5532 0.353475C15.4299 0.206573 15.2552 0.11204 15.0647 0.0890244C14.0561 -0.0269015 13.0377 -0.0296187 12.0285 0.0809236C11.8407 0.101847 11.6675 0.192575 11.5434 0.33512C11.4193 0.477665 11.3534 0.661617 11.3586 0.850502C11.3804 1.46163 11.2149 2.06484 10.8842 2.5793C10.5535 3.09376 10.0734 3.4949 9.50824 3.729C8.93736 3.94107 8.31703 3.98225 7.72311 3.84749C7.12919 3.71273 6.58743 3.40788 6.16408 2.97022C6.03623 2.83039 5.86021 2.74405 5.67133 2.72853C5.48246 2.713 5.2947 2.76944 5.14571 2.88651C4.3378 3.52064 3.60546 4.24547 2.96309 5.04673C2.84399 5.1965 2.78589 5.38572 2.80041 5.57649C2.81494 5.76727 2.90102 5.94551 3.04143 6.07554C3.50332 6.4894 3.82503 7.03662 3.962 7.64137C4.09896 8.24613 4.04441 8.8785 3.80589 9.45088C3.54895 10.0088 3.13305 10.4786 2.61026 10.8014C2.08748 11.1242 1.48105 11.2856 0.866917 11.2655C0.676309 11.2534 0.48849 11.316 0.343267 11.44C0.198043 11.564 0.106829 11.7397 0.0889542 11.9297C-0.0296514 12.9488 -0.0296514 13.9782 0.0889542 14.9972C0.124071 15.3915 0.583284 15.6615 0.969564 15.6615C1.56479 15.6567 2.14773 15.8307 2.64285 16.161C3.13797 16.4913 3.52245 16.9626 3.74646 17.5139C3.97532 18.0808 4.02578 18.704 3.89112 19.3003C3.75647 19.8967 3.44309 20.4378 2.99281 20.8514C2.85217 20.9794 2.76532 21.1559 2.74977 21.3453C2.73423 21.5347 2.79116 21.723 2.90907 21.8721C3.53679 22.6711 4.25366 23.3959 5.04576 24.0324C5.19508 24.1527 5.38465 24.2115 5.57587 24.197C5.76708 24.1824 5.94556 24.0956 6.07494 23.9541C6.49855 23.5081 7.04478 23.1975 7.64474 23.0615C8.2447 22.9255 8.87151 22.9702 9.44611 23.1899C10.0157 23.43 10.4968 23.8406 10.8234 24.3652C11.1499 24.8899 11.3057 25.5028 11.2695 26.1197C11.2592 26.3112 11.3221 26.4995 11.4455 26.6464C11.5688 26.7933 11.7435 26.8878 11.934 26.9109C12.4505 26.9696 12.97 26.9994 13.4899 27C13.9854 27.001 14.4806 26.9731 14.9729 26.9163C15.1617 26.8953 15.3356 26.8038 15.4599 26.6601C15.5841 26.5164 15.6494 26.3311 15.6428 26.1413C15.6198 25.5306 15.7842 24.9275 16.114 24.413C16.4438 23.8985 16.9232 23.4971 17.4878 23.2628C18.0583 23.0517 18.6781 23.012 19.2709 23.1488C19.8637 23.2855 20.4035 23.5927 20.8238 24.0324C20.9517 24.1722 21.1277 24.2585 21.3166 24.2741C21.5054 24.2896 21.6932 24.2332 21.8422 24.1161C22.6489 23.4806 23.3811 22.7559 24.0248 21.9559C24.1451 21.8066 24.204 21.6171 24.1895 21.4259C24.1749 21.2348 24.088 21.0564 23.9465 20.9271C23.4908 20.5255 23.1693 19.994 23.025 19.4042C22.8808 18.8144 22.9209 18.1945 23.1399 17.6282C23.3589 17.0618 23.7462 16.5761 24.2498 16.2366C24.7533 15.897 25.3489 15.7199 25.9562 15.729H26.1237C26.3153 15.7393 26.5036 15.6764 26.6506 15.5531C26.7976 15.4297 26.8921 15.2552 26.9151 15.0648C27.0283 14.0481 27.0283 13.022 26.9151 12.0053ZM13.5196 18.0297C12.629 18.0297 11.7584 17.7657 11.0179 17.271C10.2774 16.7764 9.7002 16.0734 9.35938 15.2509C9.01856 14.4284 8.92939 13.5233 9.10314 12.6501C9.27689 11.7769 9.70575 10.9749 10.3355 10.3454C10.9653 9.71583 11.7676 9.28712 12.6411 9.11343C13.5146 8.93974 14.42 9.02889 15.2428 9.36958C16.0656 9.71028 16.7689 10.2872 17.2637 11.0275C17.7585 11.7677 18.0226 12.638 18.0226 13.5283C18.0212 14.7217 17.5463 15.8658 16.7021 16.7097C15.858 17.5535 14.7134 18.0282 13.5196 18.0297Z" fill="black" fill-opacity="0.25"/>
</svg>
