<svg width="43" height="43" viewBox="0 0 43 43" fill="none" xmlns="http://www.w3.org/2000/svg">
<circle cx="21" cy="22" r="21" fill="#FF4A4A" fill-opacity="0.1"/>
<path fill-rule="evenodd" clip-rule="evenodd" d="M22.6439 15.7913C22.6439 13.1487 24.7571 11 27.361 11C29.9636 11 32.0767 13.1487 32.0781 15.7913V17.2657C32.0781 17.6294 31.7823 17.9246 31.4177 17.9246C31.0531 17.9246 30.7572 17.6294 30.7572 17.2657V15.7913C30.7572 13.8692 29.2526 12.3416 27.3624 12.3416C25.4722 12.3416 23.9676 13.8678 23.9676 15.7913V19.8831H25.311C25.9223 20.0649 26.3781 20.6441 26.3781 21.3184V28.7354C26.3781 29.5509 25.712 30.2294 24.9057 30.2294H13.5505C12.7442 30.2294 12.0781 29.5523 12.0781 28.7354V21.3184C12.0781 20.6441 12.5338 20.0649 13.1452 19.8831H22.6439V15.7913ZM25.0558 21.3184C25.0558 21.2666 25.0389 21.2302 25.0151 21.205C24.9913 21.1813 24.9548 21.1645 24.9057 21.1645H13.5505C13.5014 21.1645 13.4649 21.1813 13.4411 21.205C13.4173 21.2302 13.4004 21.2666 13.4004 21.3184V28.7354C13.4004 28.7871 13.4173 28.8235 13.4411 28.8487C13.4649 28.8725 13.5014 28.8893 13.5505 28.8893H24.9057C24.9548 28.8893 24.9913 28.8725 25.0151 28.8487C25.0389 28.8235 25.0558 28.7871 25.0558 28.7354V21.3184ZM17.3469 25.0272C17.3469 23.9821 18.1939 23.1203 19.2246 23.1203C20.2553 23.1203 21.101 23.9821 21.1024 25.0272C21.1024 26.0723 20.2553 26.9341 19.2246 26.9341C18.1939 26.9341 17.3469 26.0723 17.3469 25.0272ZM18.6693 25.0272C18.6693 25.3476 18.9119 25.5924 19.2246 25.5924C19.5374 25.5924 19.78 25.3476 19.78 25.0272C19.78 24.7068 19.5374 24.462 19.2246 24.462C18.9119 24.462 18.6693 24.7068 18.6693 25.0272Z" fill="#FF4A4A"/>
<path d="M6 7.37162C9.8027 3.44659 15.1731 1 21.1254 1C32.6541 1 42 10.1782 42 21.5C42 32.8218 32.6541 42 21.1254 42C15.1731 42 9.8027 39.5534 6 35.6284" stroke="#FF4A4A" stroke-width="1.5" stroke-linecap="round"/>
</svg>
