<svg width="42" height="42" viewBox="0 0 42 42" fill="none" xmlns="http://www.w3.org/2000/svg">
<circle cx="21" cy="21" r="21" fill="#FF4A4A" fill-opacity="0.1"/>
<path fill-rule="evenodd" clip-rule="evenodd" d="M22.6439 14.7913C22.6439 12.1487 24.7571 10 27.361 10C29.9636 10 32.0767 12.1487 32.0781 14.7913V16.2657C32.0781 16.6294 31.7823 16.9246 31.4177 16.9246C31.0531 16.9246 30.7572 16.6294 30.7572 16.2657V14.7913C30.7572 12.8692 29.2526 11.3416 27.3624 11.3416C25.4722 11.3416 23.9676 12.8678 23.9676 14.7913V18.8831H25.311C25.9223 19.0649 26.3781 19.6441 26.3781 20.3184V27.7354C26.3781 28.5509 25.712 29.2294 24.9057 29.2294H13.5505C12.7442 29.2294 12.0781 28.5523 12.0781 27.7354V20.3184C12.0781 19.6441 12.5338 19.0649 13.1452 18.8831H22.6439V14.7913ZM25.0558 20.3184C25.0558 20.2666 25.0389 20.2302 25.0151 20.205C24.9913 20.1813 24.9548 20.1645 24.9057 20.1645H13.5505C13.5014 20.1645 13.4649 20.1813 13.4411 20.205C13.4173 20.2302 13.4004 20.2666 13.4004 20.3184V27.7354C13.4004 27.7871 13.4173 27.8235 13.4411 27.8487C13.4649 27.8725 13.5014 27.8893 13.5505 27.8893H24.9057C24.9548 27.8893 24.9913 27.8725 25.0151 27.8487C25.0389 27.8235 25.0558 27.7871 25.0558 27.7354V20.3184ZM17.3469 24.0272C17.3469 22.9821 18.1939 22.1203 19.2246 22.1203C20.2553 22.1203 21.101 22.9821 21.1024 24.0272C21.1024 25.0723 20.2553 25.9341 19.2246 25.9341C18.1939 25.9341 17.3469 25.0723 17.3469 24.0272ZM18.6693 24.0272C18.6693 24.3476 18.9119 24.5924 19.2246 24.5924C19.5374 24.5924 19.78 24.3476 19.78 24.0272C19.78 23.7068 19.5374 23.462 19.2246 23.462C18.9119 23.462 18.6693 23.7068 18.6693 24.0272Z" fill="#FF4A4A"/>
</svg>
